<svg xmlns="http://www.w3.org/2000/svg" viewBox="0 0 240 240" role="img" aria-labelledby="title desc">
  <title id="title">QR code placeholder</title>
  <desc id="desc">A stylized QR code placeholder for password access.</desc>
  <rect width="240" height="240" rx="24" fill="#ffffff"/>
  <rect x="18" y="18" width="204" height="204" rx="18" fill="#f8fafc" stroke="#d7dee8"/>

  <g fill="#0f172a">
    <rect x="32" y="32" width="12" height="12"/>
    <rect x="44" y="32" width="12" height="12"/>
    <rect x="56" y="32" width="12" height="12"/>
    <rect x="32" y="44" width="12" height="12"/>
    <rect x="56" y="44" width="12" height="12"/>
    <rect x="32" y="56" width="12" height="12"/>
    <rect x="44" y="56" width="12" height="12"/>
    <rect x="56" y="56" width="12" height="12"/>

    <rect x="172" y="32" width="12" height="12"/>
    <rect x="184" y="32" width="12" height="12"/>
    <rect x="196" y="32" width="12" height="12"/>
    <rect x="172" y="44" width="12" height="12"/>
    <rect x="196" y="44" width="12" height="12"/>
    <rect x="172" y="56" width="12" height="12"/>
    <rect x="184" y="56" width="12" height="12"/>
    <rect x="196" y="56" width="12" height="12"/>

    <rect x="32" y="172" width="12" height="12"/>
    <rect x="44" y="172" width="12" height="12"/>
    <rect x="56" y="172" width="12" height="12"/>
    <rect x="32" y="184" width="12" height="12"/>
    <rect x="56" y="184" width="12" height="12"/>
    <rect x="32" y="196" width="12" height="12"/>
    <rect x="44" y="196" width="12" height="12"/>
    <rect x="56" y="196" width="12" height="12"/>

    <rect x="96" y="32" width="12" height="12"/>
    <rect x="120" y="32" width="12" height="12"/>
    <rect x="144" y="32" width="12" height="12"/>
    <rect x="96" y="44" width="12" height="12"/>
    <rect x="132" y="44" width="12" height="12"/>
    <rect x="144" y="44" width="12" height="12"/>
    <rect x="108" y="56" width="12" height="12"/>
    <rect x="120" y="56" width="12" height="12"/>
    <rect x="156" y="56" width="12" height="12"/>

    <rect x="92" y="92" width="12" height="12"/>
    <rect x="104" y="92" width="12" height="12"/>
    <rect x="128" y="92" width="12" height="12"/>
    <rect x="152" y="92" width="12" height="12"/>
    <rect x="164" y="92" width="12" height="12"/>
    <rect x="92" y="104" width="12" height="12"/>
    <rect x="116" y="104" width="12" height="12"/>
    <rect x="140" y="104" width="12" height="12"/>
    <rect x="164" y="104" width="12" height="12"/>
    <rect x="92" y="116" width="12" height="12"/>
    <rect x="128" y="116" width="12" height="12"/>
    <rect x="152" y="116" width="12" height="12"/>
    <rect x="104" y="128" width="12" height="12"/>
    <rect x="116" y="128" width="12" height="12"/>
    <rect x="140" y="128" width="12" height="12"/>
    <rect x="164" y="128" width="12" height="12"/>
    <rect x="92" y="140" width="12" height="12"/>
    <rect x="116" y="140" width="12" height="12"/>
    <rect x="128" y="140" width="12" height="12"/>
    <rect x="152" y="140" width="12" height="12"/>
    <rect x="104" y="152" width="12" height="12"/>
    <rect x="140" y="152" width="12" height="12"/>
    <rect x="164" y="152" width="12" height="12"/>
  </g>

  <rect x="96" y="96" width="48" height="48" rx="8" fill="#ffffff"/>
  <rect x="102" y="102" width="36" height="36" rx="6" fill="#0f172a"/>

  <text x="120" y="214" fill="#334155" font-family="Segoe UI, Arial, sans-serif" font-size="14" text-anchor="middle">PASSWORD QR</text>
</svg>